<svg width="93" height="17" viewBox="0 0 93 17" fill="none" xmlns="http://www.w3.org/2000/svg">
<path d="M24.6836 16.7204V0.612642H38.1781C39.8452 0.612642 41.1368 1.03317 42.053 1.87423C42.9841 2.71529 43.4497 3.9919 43.4497 5.70405C43.4497 7.16088 43.1118 8.30232 42.4359 9.12836C41.7601 9.9544 40.7989 10.4726 39.5523 10.6828L43.2695 16.7204H39.1693L35.7225 10.7955H28.2881V16.7204H24.6836ZM37.75 3.54133H28.2881V7.84424L37.75 7.86677C38.4109 7.86677 38.914 7.70157 39.2594 7.37115C39.6199 7.04073 39.8001 6.48503 39.8001 5.70405C39.8001 4.90805 39.6199 4.35235 39.2594 4.03695C38.914 3.70654 38.4109 3.54133 37.75 3.54133Z" fill="url(#paint0_linear_49_959)"/>
<path d="M46.1559 16.7204V0.657698L59.718 0.612642C61.5053 0.612642 62.8269 0.988114 63.683 1.73906C64.5541 2.47499 64.9896 3.58638 64.9896 5.07326C64.9896 6.56013 64.494 7.649 63.5028 8.33987C64.1636 8.70032 64.6517 9.18093 64.9671 9.78168C65.2825 10.3674 65.4402 11.1259 65.4402 12.057C65.4402 13.574 65.0047 14.7304 64.1336 15.5264C63.2775 16.3074 61.9558 16.6979 60.1686 16.6979L46.1559 16.7204ZM59.29 3.49627H49.7605V7.10081H59.29C60.6567 7.10081 61.34 6.48503 61.34 5.25348C61.34 4.08201 60.6567 3.49627 59.29 3.49627ZM59.7405 9.98444H49.7605V13.8143H59.7405C61.1073 13.8143 61.7906 13.1684 61.7906 11.8768C61.7906 10.6152 61.1073 9.98444 59.7405 9.98444Z" fill="url(#paint1_linear_49_959)"/>
<path d="M67.9143 16.7204V0.612642H71.5188V16.7204H67.9143Z" fill="url(#paint2_linear_49_959)"/>
<path d="M74.1502 16.8331V13.9044L87.104 13.9269C87.7649 13.9269 88.268 13.7767 88.6134 13.4763C88.9739 13.1609 89.1541 12.6578 89.1541 11.9669C89.1541 11.2761 88.9739 10.7804 88.6134 10.4801C88.268 10.1647 87.7649 10.007 87.104 10.007H79.0389C77.3718 10.007 76.0727 9.60897 75.1415 8.81296C74.2253 8.00194 73.7673 6.81545 73.7673 5.25348C73.7673 3.69152 74.2253 2.51253 75.1415 1.71653C76.0727 0.905511 77.3718 0.5 79.0389 0.5H91.6998V3.42869L79.4219 3.40616C78.7761 3.40616 78.2729 3.55635 77.9125 3.85672C77.552 4.14208 77.3718 4.60767 77.3718 5.25348C77.3718 5.8993 77.552 6.37239 77.9125 6.67277C78.2729 6.95813 78.7761 7.10081 79.4219 7.10081H87.487C89.1541 7.10081 90.4457 7.51383 91.3619 8.33987C92.2931 9.15089 92.7587 10.3599 92.7587 11.9669C92.7587 13.5589 92.2931 14.768 91.3619 15.594C90.4457 16.42 89.1541 16.8331 87.487 16.8331H74.1502Z" fill="url(#paint3_linear_49_959)"/>
<path d="M9.03387 16.3331C6.16526 16.3331 3.94246 15.6497 2.36548 14.283C0.788493 12.9013 0 10.8587 0 8.15527C0 5.46689 0.788493 3.43933 2.36548 2.07261C3.94246 0.690874 6.21783 0 9.19157 0H13.2467C16.2204 0 18.4958 0.690874 20.0728 2.07261C21.6498 3.43933 22.4382 5.46689 22.4382 8.15527C22.4382 10.8587 21.6498 12.9013 20.0728 14.283C18.4958 15.6497 16.258 16.3331 13.3593 16.3331H9.03387ZM9.43938 2.92868C7.77228 2.92868 6.47315 3.22907 5.54198 3.82982C4.6108 4.43058 4.02507 5.38428 3.78476 6.69092H18.6535C18.4132 5.38428 17.8274 4.43058 16.8963 3.82982C15.9651 3.22907 14.666 2.92868 12.9989 2.92868H9.43938ZM9.50697 13.4044H12.9989C14.681 13.4044 15.9801 13.104 16.8963 12.5033C17.8274 11.9025 18.4132 10.9413 18.6535 9.61962H3.78476C4.02507 10.9413 4.6108 11.9025 5.54198 12.5033C6.47315 13.104 7.79481 13.4044 9.50697 13.4044Z" fill="#4220F3"/>
<defs>
<linearGradient id="paint0_linear_49_959" x1="24.6836" y1="8.66653" x2="129.5" y2="25" gradientUnits="userSpaceOnUse">
<stop stop-color="#010101"/>
<stop offset="1" stop-opacity="0"/>
</linearGradient>
<linearGradient id="paint1_linear_49_959" x1="24.6836" y1="8.66653" x2="129.5" y2="25" gradientUnits="userSpaceOnUse">
<stop stop-color="#010101"/>
<stop offset="1" stop-opacity="0"/>
</linearGradient>
<linearGradient id="paint2_linear_49_959" x1="24.6836" y1="8.66653" x2="129.5" y2="25" gradientUnits="userSpaceOnUse">
<stop stop-color="#010101"/>
<stop offset="1" stop-opacity="0"/>
</linearGradient>
<linearGradient id="paint3_linear_49_959" x1="24.6836" y1="8.66653" x2="129.5" y2="25" gradientUnits="userSpaceOnUse">
<stop stop-color="#010101"/>
<stop offset="1" stop-opacity="0"/>
</linearGradient>
</defs>
</svg>
