<svg width="23" height="17" viewBox="0 0 23 17" fill="none" xmlns="http://www.w3.org/2000/svg">
<path d="M9.03387 16.3331C6.16526 16.3331 3.94246 15.6497 2.36548 14.283C0.788493 12.9013 0 10.8587 0 8.15527C0 5.46689 0.788493 3.43933 2.36548 2.07261C3.94246 0.690874 6.21783 0 9.19157 0H13.2467C16.2204 0 18.4958 0.690874 20.0728 2.07261C21.6498 3.43933 22.4382 5.46689 22.4382 8.15527C22.4382 10.8587 21.6498 12.9013 20.0728 14.283C18.4958 15.6497 16.258 16.3331 13.3593 16.3331H9.03387ZM9.43938 2.92868C7.77228 2.92868 6.47315 3.22907 5.54198 3.82982C4.6108 4.43058 4.02507 5.38428 3.78476 6.69092H18.6535C18.4132 5.38428 17.8274 4.43058 16.8963 3.82982C15.9651 3.22907 14.666 2.92868 12.9989 2.92868H9.43938ZM9.50697 13.4044H12.9989C14.681 13.4044 15.9801 13.104 16.8963 12.5033C17.8274 11.9025 18.4132 10.9413 18.6535 9.61962H3.78476C4.02507 10.9413 4.6108 11.9025 5.54198 12.5033C6.47315 13.104 7.79481 13.4044 9.50697 13.4044Z" fill="white"/>
</svg>
